<?xml version="1.0" encoding="UTF-8"?>
<svg id="_图层_2" data-name="图层 2" xmlns="http://www.w3.org/2000/svg" viewBox="0 0 85.44 136.87">
  <defs>
    <style>
      .cls-1 {
        fill: #e84f2c;
      }

      .cls-2 {
        fill: #f6a841;
      }

      .cls-3 {
        fill: #6698cd;
      }
    </style>
  </defs>
  <g id="_图层_1-2" data-name="图层 1">
    <g>
      <path class="cls-1" d="m85.3,41.53l-13.88-17.57c-11.09-14.03-33.67-14.73-50.35-1.56C4.39,35.57-.16,57.71,10.93,71.74l13.22,16.73L.26,107.35c-.14.11-.23.27-.25.45-.02.18.03.36.14.5l13.88,17.57c5.77,7.31,14.66,11,24.22,11,8.79,0,18.14-3.13,26.13-9.44,16.68-13.17,21.22-35.31,10.14-49.34l-13.22-16.73,23.89-18.87c.29-.23.34-.66.11-.95Z"/>
      <path class="cls-2" d="m.26,107.35c-.14.11-.23.27-.25.45-.02.18.03.36.14.5l13.88,17.57c5.77,7.31,14.66,11,24.22,11,8.79,0,18.14-3.13,26.13-9.44,16.68-13.17,21.22-35.31,10.14-49.34l-13.22-16.73-37.15,27.12L.26,107.35Z"/>
      <path class="cls-3" d="m25.86,13.99L5.86.09c-.19-.13-.44-.12-.62.02-.18.14-.24.39-.16.6l8.79,21.97c.07.16.21.28.38.32.06.01.13.01.19,0,.11-.02.21-.07.29-.15,3.25-3.35,6.97-6.03,11.06-7.97.17-.08.28-.24.3-.43.02-.19-.07-.36-.22-.47Z"/>
    </g>
  </g>
</svg>